<svg width="307" height="46" viewBox="0 0 307 46" fill="none" xmlns="http://www.w3.org/2000/svg">
<path d="M127.99 33L128.118 32.168C130.379 30.2267 132.32 28.5413 133.942 27.112C135.584 25.6827 136.918 24.4133 137.942 23.304C138.966 22.1947 139.712 21.1493 140.182 20.168C140.672 19.1867 140.918 18.184 140.918 17.16C140.918 16.1147 140.608 15.2187 139.99 14.472C139.371 13.704 138.4 13.32 137.078 13.32C136.331 13.32 135.563 13.512 134.774 13.896C134.006 14.2587 133.216 14.824 132.406 15.592L131.67 14.792C132.608 13.9173 133.504 13.2667 134.358 12.84C135.232 12.392 136.182 12.168 137.206 12.168C138.848 12.168 140.096 12.6267 140.95 13.544C141.803 14.44 142.23 15.5707 142.23 16.936C142.23 18.1093 141.984 19.2293 141.494 20.296C141.003 21.3413 140.246 22.4293 139.222 23.56C138.219 24.6907 136.95 25.9387 135.414 27.304C133.899 28.648 132.118 30.2053 130.07 31.976C130.646 31.9333 131.222 31.9013 131.798 31.88C132.395 31.8373 132.971 31.816 133.526 31.816H140.246L140.054 33H127.99ZM146.579 33.384C145.512 33.384 144.627 33.064 143.923 32.424C143.24 31.784 142.739 30.952 142.419 29.928C142.099 28.904 141.939 27.816 141.939 26.664C141.939 25.2987 142.067 23.9333 142.323 22.568C142.6 21.1813 142.973 19.8693 143.443 18.632C143.933 17.3733 144.509 16.264 145.171 15.304C145.853 14.3227 146.6 13.5547 147.411 13C148.243 12.4453 149.128 12.168 150.067 12.168C151.112 12.168 151.976 12.4987 152.659 13.16C153.341 13.8 153.843 14.6427 154.163 15.688C154.504 16.712 154.675 17.8 154.675 18.952C154.675 20.3173 154.536 21.6933 154.259 23.08C154.003 24.4453 153.629 25.7467 153.139 26.984C152.669 28.2213 152.093 29.32 151.411 30.28C150.749 31.24 150.003 31.9973 149.171 32.552C148.36 33.1067 147.496 33.384 146.579 33.384ZM146.611 32.232C147.379 32.232 148.104 31.9653 148.787 31.432C149.491 30.8987 150.12 30.1733 150.675 29.256C151.229 28.3387 151.709 27.304 152.115 26.152C152.541 25 152.861 23.816 153.075 22.6C153.288 21.384 153.395 20.2107 153.395 19.08C153.395 18.056 153.277 17.1067 153.043 16.232C152.808 15.336 152.435 14.6213 151.923 14.088C151.411 13.5547 150.76 13.288 149.971 13.288C149.203 13.288 148.477 13.5653 147.795 14.12C147.112 14.6747 146.483 15.4107 145.907 16.328C145.352 17.2453 144.872 18.28 144.467 19.432C144.061 20.584 143.752 21.7787 143.539 23.016C143.325 24.2533 143.219 25.4267 143.219 26.536C143.219 27.5387 143.336 28.4773 143.571 29.352C143.805 30.2053 144.168 30.8987 144.659 31.432C145.149 31.9653 145.8 32.232 146.611 32.232ZM152.432 33L152.56 32.168C154.821 30.2267 156.763 28.5413 158.384 27.112C160.027 25.6827 161.36 24.4133 162.384 23.304C163.408 22.1947 164.155 21.1493 164.624 20.168C165.115 19.1867 165.36 18.184 165.36 17.16C165.36 16.1147 165.051 15.2187 164.432 14.472C163.813 13.704 162.843 13.32 161.52 13.32C160.773 13.32 160.005 13.512 159.216 13.896C158.448 14.2587 157.659 14.824 156.848 15.592L156.112 14.792C157.051 13.9173 157.947 13.2667 158.8 12.84C159.675 12.392 160.624 12.168 161.648 12.168C163.291 12.168 164.539 12.6267 165.392 13.544C166.245 14.44 166.672 15.5707 166.672 16.936C166.672 18.1093 166.427 19.2293 165.936 20.296C165.445 21.3413 164.688 22.4293 163.664 23.56C162.661 24.6907 161.392 25.9387 159.856 27.304C158.341 28.648 156.56 30.2053 154.512 31.976C155.088 31.9333 155.664 31.9013 156.24 31.88C156.837 31.8373 157.413 31.816 157.968 31.816H164.688L164.496 33H152.432ZM170.637 33.384C169.656 33.384 168.803 33.2133 168.077 32.872C167.352 32.5307 166.733 32.104 166.221 31.592C165.709 31.08 165.293 30.5573 164.973 30.024L165.933 29.288C166.232 29.736 166.584 30.184 166.989 30.632C167.395 31.08 167.896 31.464 168.493 31.784C169.112 32.0827 169.88 32.232 170.797 32.232C171.843 32.232 172.813 31.9653 173.709 31.432C174.627 30.8773 175.352 30.12 175.885 29.16C176.44 28.2 176.717 27.08 176.717 25.8C176.717 24.2853 176.323 23.1547 175.533 22.408C174.765 21.6613 173.752 21.288 172.493 21.288C171.747 21.288 171.107 21.384 170.573 21.576C170.04 21.768 169.453 22.0453 168.813 22.408L168.109 21.864L170.669 12.552H179.469L179.213 13.704H171.597L169.613 20.936C170.019 20.7227 170.477 20.5413 170.989 20.392C171.523 20.2427 172.099 20.168 172.717 20.168C174.253 20.168 175.523 20.616 176.525 21.512C177.528 22.408 178.029 23.752 178.029 25.544C178.029 26.7173 177.827 27.7947 177.421 28.776C177.037 29.736 176.493 30.568 175.789 31.272C175.107 31.9547 174.317 32.4773 173.421 32.84C172.547 33.2027 171.619 33.384 170.637 33.384Z" fill="white"/>
<line y1="-0.5" x2="111" y2="-0.5" transform="matrix(-1 -1.23619e-07 -6.1825e-08 1 111 23)" stroke="white"/>
<line y1="-0.5" x2="111" y2="-0.5" transform="matrix(-1 -1.27189e-07 -6.00896e-08 1 307 23)" stroke="white"/>
</svg>
