<svg width="425" height="962" viewBox="0 0 425 962" fill="none" xmlns="http://www.w3.org/2000/svg">
<g filter="url(#filter0_d_310_49)">
<path d="M50.1701 951.683C50.1701 951.683 87.17 951.683 170.17 922.683C253.17 893.683 426.17 797.183 419.17 622.683C412.17 448.183 -19.8186 480.683 6.67003 314.183C33.1587 147.683 128.67 122.183 178.67 79.1826C228.67 36.1826 183.67 1.18262 183.67 1.18262" stroke="white" stroke-width="3"/>
<path d="M145.142 448.943L92.1931 435.608L105.08 410.128L138.092 442.352L109.074 403.401L117.513 389.286L145.142 448.943Z" fill="white"/>
<path d="M100.891 418.7L105.219 410.214L90.0117 408.338L100.891 418.7Z" fill="url(#paint0_linear_310_49)"/>
</g>
<defs>
<filter id="filter0_d_310_49" x="0" y="0" width="424.876" height="961.183" filterUnits="userSpaceOnUse" color-interpolation-filters="sRGB">
<feFlood flood-opacity="0" result="BackgroundImageFix"/>
<feColorMatrix in="SourceAlpha" type="matrix" values="0 0 0 0 0 0 0 0 0 0 0 0 0 0 0 0 0 0 127 0" result="hardAlpha"/>
<feOffset dy="4"/>
<feGaussianBlur stdDeviation="2"/>
<feComposite in2="hardAlpha" operator="out"/>
<feColorMatrix type="matrix" values="0 0 0 0 0 0 0 0 0 0 0 0 0 0 0 0 0 0 0.25 0"/>
<feBlend mode="normal" in2="BackgroundImageFix" result="effect1_dropShadow_310_49"/>
<feBlend mode="normal" in="SourceGraphic" in2="effect1_dropShadow_310_49" result="shape"/>
</filter>
<linearGradient id="paint0_linear_310_49" x1="102.89" y1="417.013" x2="95.2189" y2="415.498" gradientUnits="userSpaceOnUse">
<stop stop-color="#90B7E4"/>
<stop offset="1" stop-color="white"/>
</linearGradient>
</defs>
</svg>
