<svg width="48" height="41" viewBox="0 0 48 41" fill="none" xmlns="http://www.w3.org/2000/svg">
<path fill-rule="evenodd" clip-rule="evenodd" d="M26.9893 0.0254549C24.7546 0.437743 23.2045 1.14156 21.6887 2.43183L21.0793 2.95071L22.3104 3.20844C24.628 3.69375 26.1985 4.35244 27.9847 5.5884L29.0366 6.31614L29.7074 5.90748C30.5781 5.37681 31.8461 4.91747 33.3046 4.60428C34.2735 4.39621 34.7087 4.36276 35.8465 4.40902C40.612 4.60292 44.6608 7.55312 46.214 11.9634L46.5087 12.8003L46.7385 12.4737C48.2015 10.3941 48.4107 7.47442 47.2682 5.08109C46.6865 3.86248 45.2606 2.42775 44.0565 1.84946C41.5016 0.622343 38.6494 0.895728 36.3974 2.58355L35.8013 3.03031L35.1539 2.47038C33.2793 0.849464 31.2808 0.0837376 28.7414 0.0137761C27.9332 -0.00844848 27.1448 -0.00323297 26.9893 0.0254549ZM17.3245 5.07247C13.1039 5.68251 9.27376 8.49143 7.29117 12.4305C5.85478 15.2844 5.56405 18.8103 6.4748 22.3307C6.54568 22.6046 6.51945 22.6592 6.28896 22.7182C5.73451 22.8602 4.13421 23.7643 3.44615 24.3244C0.868746 26.422 -0.43595 29.899 0.13094 33.1592C0.758193 36.7673 3.18401 39.5396 6.69884 40.6653C7.89095 41.0472 10.2313 41.1149 11.4521 40.8029C12.7936 40.46 13.5506 40.1443 14.4654 39.5463C14.9188 39.2499 16.9176 38.0205 18.9071 36.8142C24.3476 33.5158 26.7212 32.0758 33.0296 28.2466C36.1963 26.3244 39.1968 24.5244 39.6972 24.2467C41.4303 23.285 42.4852 22.3017 43.4509 20.7476C45.8142 16.944 45.073 11.8258 41.7221 8.81062C38.3628 5.78774 33.1147 5.62899 29.6326 8.44482L28.9675 8.98275L28.0647 8.20058C26.1592 6.54972 23.6649 5.4157 21.1753 5.06828C20.17 4.92812 18.3094 4.93005 17.3245 5.07247Z" fill="white"/>
</svg>
